<svg xmlns="http://www.w3.org/2000/svg" width="4096" height="2135" viewBox="0 0 4096 2135" version="1.1"><path d="M 1828 580.594 C 1826.075 580.824, 1817.975 581.889, 1810 582.961 C 1783.600 586.509, 1772.567 587.925, 1766.500 588.542 C 1759.522 589.252, 1750.371 591.604, 1747.500 593.425 C 1744.951 595.041, 1736.679 597.647, 1731.500 598.466 C 1725.105 599.477, 1718.571 601.866, 1715.003 604.498 C 1713.183 605.840, 1708.831 607.892, 1705.330 609.057 C 1701.829 610.222, 1696.835 612.696, 1694.232 614.556 C 1691.630 616.415, 1686.692 619.322, 1683.261 621.015 C 1679.829 622.707, 1676.553 624.967, 1675.981 626.036 C 1675.409 627.105, 1673.553 628.697, 1671.858 629.574 C 1666.771 632.204, 1649.331 648.678, 1644.571 655.348 C 1642.128 658.772, 1639.151 662.457, 1637.956 663.537 C 1636.761 664.617, 1634.732 667.573, 1633.447 670.107 C 1632.162 672.642, 1629.974 676.066, 1628.585 677.716 C 1627.196 679.367, 1624.731 684.167, 1623.108 688.383 C 1621.484 692.599, 1618.794 698.106, 1617.128 700.620 C 1615.463 703.134, 1613.618 707.510, 1613.028 710.345 C 1612.438 713.180, 1611.340 718.425, 1610.586 722 C 1609.833 725.575, 1608.030 731.755, 1606.580 735.732 C 1597.315 761.145, 1597.971 898.296, 1607.470 921.754 C 1608.750 924.914, 1610.765 932, 1611.947 937.500 C 1613.496 944.706, 1615.171 949.316, 1617.942 954 C 1620.057 957.575, 1622.537 962.834, 1623.453 965.688 C 1624.370 968.541, 1626.488 972.591, 1628.162 974.688 C 1629.835 976.784, 1632.463 980.975, 1634.002 984 C 1635.541 987.025, 1638.015 990.625, 1639.501 992 C 1640.986 993.375, 1643.112 996.426, 1644.225 998.780 C 1645.338 1001.134, 1648.130 1005.184, 1650.430 1007.780 C 1652.730 1010.376, 1655.683 1014.075, 1656.994 1016 C 1658.304 1017.925, 1660.979 1021.131, 1662.938 1023.124 C 1664.897 1025.117, 1667.921 1028.267, 1669.658 1030.124 C 1673.034 1033.733, 1681.903 1041.897, 1691.232 1049.981 C 1694.384 1052.713, 1699.109 1056.053, 1701.732 1057.404 C 1704.354 1058.754, 1707.794 1061.261, 1709.376 1062.974 C 1710.959 1064.687, 1713.884 1066.925, 1715.876 1067.947 C 1717.869 1068.969, 1720.625 1071.018, 1722 1072.500 C 1723.375 1073.982, 1726.300 1076.098, 1728.500 1077.202 C 1730.700 1078.306, 1735.069 1081.202, 1738.208 1083.638 C 1741.348 1086.074, 1745.520 1088.737, 1747.481 1089.556 C 1749.441 1090.375, 1752.733 1092.571, 1754.797 1094.436 C 1756.861 1096.301, 1761.176 1098.988, 1764.386 1100.407 C 1767.597 1101.827, 1771.731 1104.313, 1773.574 1105.931 C 1775.417 1107.549, 1778.878 1109.737, 1781.264 1110.792 C 1783.649 1111.848, 1787.154 1114.065, 1789.051 1115.720 C 1790.948 1117.375, 1795.200 1120.213, 1798.500 1122.026 C 1801.800 1123.840, 1805.625 1126.326, 1807 1127.552 C 1808.375 1128.777, 1811.525 1130.789, 1814 1132.022 C 1816.475 1133.255, 1820.119 1135.717, 1822.099 1137.493 C 1824.078 1139.269, 1828.513 1142.222, 1831.954 1144.056 C 1835.394 1145.890, 1838.884 1148.420, 1839.708 1149.678 C 1840.533 1150.936, 1842.848 1152.973, 1844.853 1154.206 C 1849.959 1157.343, 1871.081 1178.580, 1874.492 1184.005 C 1876.046 1186.477, 1878.094 1189.051, 1879.042 1189.724 C 1879.989 1190.398, 1882.630 1194.766, 1884.910 1199.432 C 1887.189 1204.098, 1889.495 1208.188, 1890.034 1208.521 C 1898.405 1213.695, 1904.567 1293.011, 1899.005 1324 C 1898.462 1327.025, 1897.550 1333.325, 1896.977 1338 C 1895.518 1349.927, 1893.391 1356.637, 1889.901 1360.330 C 1888.253 1362.073, 1885.897 1365.075, 1884.665 1367 C 1876.614 1379.582, 1837.404 1378.599, 1830.833 1365.651 C 1829.674 1363.368, 1827.494 1359.700, 1825.987 1357.500 C 1819.274 1347.695, 1819.587 1351.994, 1819.017 1261.830 L 1818.500 1180.159 1816.071 1177.575 L 1813.643 1174.991 1709.679 1175.245 L 1605.716 1175.500 1603.608 1178.322 C 1601.534 1181.100, 1601.495 1182.017, 1601.186 1235.822 C 1600.738 1313.971, 1602.264 1346.393, 1607.124 1362 C 1608.238 1365.575, 1610.423 1374.668, 1611.980 1382.208 C 1613.944 1391.715, 1615.912 1398.150, 1618.403 1403.208 C 1620.378 1407.218, 1622.711 1413.118, 1623.588 1416.319 C 1624.465 1419.519, 1626.437 1423.569, 1627.971 1425.319 C 1629.504 1427.068, 1632.163 1431.600, 1633.880 1435.388 C 1635.596 1439.176, 1638.749 1444.174, 1640.887 1446.494 C 1643.026 1448.813, 1645.341 1451.769, 1646.033 1453.062 C 1647.151 1455.150, 1655.854 1464.052, 1667.500 1475.018 C 1669.700 1477.089, 1673.777 1479.922, 1676.561 1481.313 C 1679.344 1482.704, 1683.508 1485.418, 1685.814 1487.344 C 1688.119 1489.271, 1691.692 1491.380, 1693.753 1492.031 C 1695.814 1492.683, 1700.819 1495.010, 1704.876 1497.203 C 1709.318 1499.604, 1716.255 1502.178, 1722.314 1503.673 C 1727.848 1505.039, 1734.429 1507.185, 1736.938 1508.442 C 1744.160 1512.059, 1747.542 1512.829, 1763.500 1514.489 C 1771.750 1515.347, 1782.775 1516.918, 1788 1517.981 C 1816.201 1523.718, 1880.634 1524.658, 1909 1519.747 C 1917.525 1518.270, 1933.327 1515.963, 1944.116 1514.618 C 1960.146 1512.621, 1965.174 1511.596, 1971.616 1509.012 C 1975.952 1507.273, 1984.183 1504.741, 1989.908 1503.386 C 1996.077 1501.925, 2002.796 1499.547, 2006.408 1497.547 C 2009.758 1495.691, 2014.805 1493.500, 2017.622 1492.678 C 2023.515 1490.959, 2028.222 1488.669, 2032.500 1485.439 C 2034.150 1484.193, 2037.975 1482.074, 2041 1480.731 C 2044.025 1479.388, 2047.400 1477.276, 2048.500 1476.038 C 2049.600 1474.800, 2052.167 1472.936, 2054.205 1471.896 C 2059.965 1468.957, 2077.617 1453.428, 2081.142 1448.199 C 2082.885 1445.615, 2085.654 1442.150, 2087.295 1440.500 C 2088.936 1438.850, 2091.078 1435.700, 2092.055 1433.500 C 2093.031 1431.300, 2095.373 1427.810, 2097.258 1425.744 C 2099.375 1423.426, 2101.405 1419.615, 2102.565 1415.784 C 2103.599 1412.371, 2105.941 1407.403, 2107.771 1404.743 C 2110.333 1401.018, 2111.685 1397.219, 2113.657 1388.204 C 2115.064 1381.767, 2117.281 1373.954, 2118.582 1370.843 C 2129.551 1344.609, 2128.900 1173.199, 2117.729 1146.500 C 2116.348 1143.200, 2114.442 1136.900, 2113.492 1132.500 C 2112.476 1127.788, 2110.201 1121.623, 2107.957 1117.500 C 2105.862 1113.650, 2103.200 1107.960, 2102.042 1104.855 C 2100.883 1101.751, 2098.627 1097.405, 2097.029 1095.199 C 2095.431 1092.993, 2092.795 1088.558, 2091.171 1085.344 C 2089.547 1082.130, 2087.221 1078.600, 2086.001 1077.500 C 2084.782 1076.400, 2082.723 1073.407, 2081.426 1070.850 C 2080.129 1068.292, 2077.321 1064.182, 2075.188 1061.717 C 2073.054 1059.251, 2070.250 1055.522, 2068.957 1053.430 C 2067.664 1051.338, 2064.557 1047.566, 2062.053 1045.046 C 2059.549 1042.527, 2054.041 1036.873, 2049.813 1032.483 C 2041.283 1023.625, 2032.813 1015.821, 2029 1013.305 C 2027.625 1012.398, 2024.433 1009.756, 2021.907 1007.435 C 2019.381 1005.113, 2015.781 1002.441, 2013.907 1001.497 C 2012.033 1000.552, 2008.925 998.326, 2007 996.550 C 2005.075 994.773, 2001.371 992.109, 1998.768 990.629 C 1996.166 989.148, 1993.562 987.051, 1992.982 985.967 C 1992.403 984.884, 1989.780 982.909, 1987.155 981.578 C 1984.530 980.248, 1980.136 977.385, 1977.392 975.216 C 1974.648 973.046, 1970.363 970.369, 1967.869 969.266 C 1965.376 968.163, 1961.872 965.829, 1960.082 964.080 C 1958.292 962.330, 1954.341 959.799, 1951.302 958.455 C 1948.263 957.111, 1944.208 954.634, 1942.290 952.949 C 1940.371 951.265, 1936.460 948.851, 1933.597 947.585 C 1930.735 946.320, 1926.823 943.906, 1924.905 942.222 C 1922.987 940.537, 1918.736 937.975, 1915.459 936.528 C 1912.181 935.080, 1908.150 932.592, 1906.500 930.999 C 1904.850 929.405, 1901.700 927.360, 1899.500 926.454 C 1897.300 925.548, 1893.234 923.109, 1890.465 921.033 C 1887.696 918.958, 1883.421 916.238, 1880.965 914.988 C 1878.509 913.738, 1874.250 910.754, 1871.500 908.357 C 1868.750 905.961, 1863.497 901.412, 1859.827 898.250 C 1856.157 895.087, 1849.946 888.900, 1846.024 884.500 C 1842.102 880.100, 1837.308 874.769, 1835.370 872.653 C 1833.431 870.536, 1830.950 866.711, 1829.855 864.153 C 1828.761 861.594, 1827.017 858.594, 1825.980 857.486 C 1815.349 846.128, 1815.103 756.587, 1825.667 743.500 C 1826.999 741.850, 1829.531 738.514, 1831.294 736.087 C 1846.832 714.698, 1889.517 727.693, 1897.145 756.135 C 1898.822 762.386, 1900.665 769.075, 1901.242 771 C 1901.864 773.075, 1902.468 790.987, 1902.727 815 C 1903.204 859.346, 1902.824 856.662, 1909.334 861.718 L 1912.167 863.919 2003.886 863.915 C 2103.882 863.911, 2105.155 863.846, 2109.736 858.521 L 2112 855.888 2111.965 811.194 C 2111.922 757.587, 2111.136 743.541, 2107.564 732.598 C 2106.151 728.271, 2104.525 721.753, 2103.949 718.115 C 2102.211 707.123, 2100.027 699.812, 2096.597 693.500 C 2094.803 690.200, 2092.518 685.250, 2091.518 682.500 C 2090.518 679.750, 2088.495 675.925, 2087.023 674 C 2085.551 672.075, 2083.057 668.250, 2081.481 665.500 C 2079.905 662.750, 2076.227 657.887, 2073.308 654.693 C 2070.389 651.499, 2067.994 648.574, 2067.986 648.193 C 2067.933 645.673, 2040.148 623.491, 2033.041 620.295 C 2030.039 618.945, 2026.143 616.577, 2024.385 615.033 C 2022.626 613.489, 2018.284 611.259, 2014.735 610.078 C 2011.186 608.897, 2006.307 606.683, 2003.891 605.158 C 1998.182 601.554, 1997.220 601.216, 1986.192 598.941 C 1981.073 597.885, 1973.873 595.723, 1970.192 594.136 C 1961.622 590.440, 1962.533 590.626, 1935.500 587.067 C 1922.850 585.402, 1907.550 583.338, 1901.500 582.480 C 1890.954 580.984, 1836.442 579.585, 1828 580.594 M 2319 580.575 C 2317.625 580.794, 2312 581.474, 2306.500 582.086 C 2301 582.697, 2292.450 584.008, 2287.500 585 C 2282.550 585.991, 2275.800 587.091, 2272.500 587.444 C 2261.935 588.574, 2255.614 590.121, 2251 592.705 C 2248.525 594.090, 2242.054 596.718, 2236.619 598.543 C 2230.173 600.708, 2225.654 602.889, 2223.619 604.819 C 2221.904 606.445, 2218.927 608.570, 2217.004 609.541 C 2212.035 612.049, 2201.552 621.552, 2198.412 626.395 C 2196.948 628.653, 2194.712 631.625, 2193.444 633 C 2192.176 634.375, 2190.135 638.200, 2188.908 641.500 C 2187.682 644.800, 2185.236 649.599, 2183.474 652.165 C 2180.979 655.799, 2179.999 658.674, 2179.041 665.165 C 2178.364 669.749, 2176.759 678.450, 2175.475 684.500 C 2171.335 704, 2170.734 710.090, 2170.616 733.713 C 2170.455 765.908, 2163.586 762.994, 2239.500 762.929 C 2316.551 762.862, 2307.825 767.471, 2308.503 726.477 C 2309.265 680.437, 2309.154 681.037, 2318.640 671.785 C 2331.968 658.787, 2356.796 664.886, 2362.259 682.500 C 2364.351 689.244, 2363.869 764.830, 2361.688 772.146 C 2360.046 777.653, 2355.460 785.708, 2350.810 791.255 C 2345.881 797.133, 2325.538 801.791, 2301.228 802.608 L 2280.500 803.304 2276.750 807.034 L 2273 810.765 2273 843.806 L 2273 876.847 2275.480 879.794 C 2279.268 884.296, 2282.031 884.864, 2302 885.251 L 2320.500 885.610 2333.392 890.022 C 2350.424 895.852, 2349.684 895.157, 2360.230 915.231 C 2363.840 922.102, 2365.418 1025.590, 2362.121 1039.232 C 2357.027 1060.308, 2329.316 1066.948, 2316.214 1050.231 C 2309.157 1041.228, 2308.969 1039.513, 2308.584 980.772 C 2308.156 915.468, 2317.585 923.595, 2241.791 923.206 C 2164.070 922.807, 2170.640 919.811, 2170.197 955.855 C 2169.801 988.066, 2171.280 1015.840, 2174.013 1027.534 C 2175.166 1032.465, 2176.769 1041.225, 2177.575 1047 C 2179.433 1060.313, 2181.537 1068.611, 2184.032 1072.468 C 2185.111 1074.135, 2186.904 1077.525, 2188.016 1080 C 2196.216 1098.243, 2211.707 1114.784, 2228.343 1123.060 C 2232.279 1125.019, 2237.525 1127.793, 2240 1129.226 C 2242.475 1130.659, 2248.924 1132.779, 2254.332 1133.937 C 2259.740 1135.095, 2265.815 1136.872, 2267.832 1137.886 C 2276.962 1142.472, 2295.218 1144.098, 2337.500 1144.089 C 2381.046 1144.080, 2393.290 1142.901, 2411.500 1136.964 C 2416.450 1135.350, 2423.856 1133.335, 2427.957 1132.485 C 2432.155 1131.616, 2438.083 1129.448, 2441.519 1127.527 C 2444.876 1125.649, 2450.220 1123.141, 2453.393 1121.954 C 2456.567 1120.767, 2460.590 1118.562, 2462.332 1117.055 C 2464.074 1115.548, 2467.525 1113.114, 2470 1111.646 C 2478.028 1106.886, 2492.838 1090.882, 2496.155 1083.382 C 2497.236 1080.938, 2499.433 1076.815, 2501.037 1074.219 C 2502.641 1071.624, 2505.111 1065, 2506.526 1059.500 C 2507.940 1054, 2510.244 1045.900, 2511.645 1041.500 C 2517.819 1022.111, 2517.749 921.995, 2511.548 902.324 C 2510.191 898.021, 2507.976 889.931, 2506.627 884.346 C 2504.078 873.801, 2502.933 870.876, 2500.030 867.500 C 2499.085 866.400, 2496.701 862.799, 2494.733 859.497 C 2492.766 856.196, 2489.208 852.040, 2486.828 850.261 C 2484.448 848.483, 2480.780 845.696, 2478.677 844.068 C 2476.574 842.441, 2472.749 840.375, 2470.177 839.478 C 2463.512 837.152, 2454.572 833.747, 2454.089 833.350 C 2453.864 833.164, 2454.379 832.222, 2455.236 831.256 C 2456.092 830.290, 2457.627 827.700, 2458.646 825.500 C 2460.147 822.261, 2461.727 820.884, 2466.944 818.263 C 2474.390 814.523, 2479.803 809.586, 2484.228 802.500 C 2485.945 799.750, 2488.415 796.330, 2489.718 794.900 C 2491.021 793.470, 2493.620 787.620, 2495.493 781.900 C 2497.366 776.180, 2500.156 768.125, 2501.692 764 L 2504.485 756.500 2504.484 725.500 C 2504.482 691.975, 2503.627 683.158, 2499.600 675.176 C 2498.302 672.604, 2496.266 666.932, 2495.074 662.571 C 2493.762 657.769, 2491.596 652.840, 2489.580 650.071 C 2487.749 647.557, 2485.232 643.475, 2483.987 641 C 2482.142 637.331, 2474.929 628.352, 2469.929 623.500 C 2469.362 622.950, 2466.080 619.688, 2462.635 616.250 C 2459.190 612.813, 2455.899 610, 2455.322 610 C 2454.745 610, 2451.315 607.816, 2447.700 605.148 C 2444.085 602.479, 2438.961 599.704, 2436.313 598.981 C 2433.666 598.258, 2428.125 595.948, 2424 593.849 C 2417.597 590.591, 2414.160 589.653, 2400.500 587.435 C 2391.700 586.006, 2379.775 583.904, 2374 582.764 C 2364.048 580.799, 2326.872 579.319, 2319 580.575 M 1009.500 599.668 C 1005.181 600.608, 1002.969 602.454, 1002.006 605.919 C 1000.429 611.594, 1000.703 1497.030, 1002.282 1499.087 C 1005.345 1503.076, 1001.732 1503, 1188.355 1503 C 1381.185 1503, 1393.007 1502.752, 1407.371 1498.403 C 1411.842 1497.050, 1419.100 1495.270, 1423.500 1494.448 C 1438.753 1491.600, 1444.427 1489.934, 1449.108 1486.931 C 1452.526 1484.738, 1465.172 1480, 1467.609 1480 C 1467.673 1480, 1469.474 1478.604, 1471.612 1476.897 C 1473.751 1475.190, 1478.425 1472.310, 1482 1470.497 C 1485.575 1468.683, 1489.850 1466.003, 1491.500 1464.541 C 1493.150 1463.079, 1495.850 1461.192, 1497.500 1460.347 C 1499.150 1459.503, 1502.367 1456.942, 1504.648 1454.656 C 1506.929 1452.370, 1510.304 1449.080, 1512.148 1447.344 C 1519.625 1440.303, 1524.891 1434.313, 1526.514 1431 C 1527.457 1429.075, 1529.308 1426.345, 1530.627 1424.932 C 1531.946 1423.520, 1534.580 1418.621, 1536.481 1414.046 C 1538.382 1409.471, 1540.568 1405.001, 1541.340 1404.114 C 1543.952 1401.109, 1544.887 1398.359, 1547.014 1387.417 C 1548.181 1381.412, 1549.998 1373.350, 1551.050 1369.500 C 1554.966 1355.175, 1555.039 1349.782, 1555.018 1078.103 C 1554.997 812.181, 1554.805 796.188, 1551.423 777.531 C 1550.097 770.217, 1548.941 762.443, 1545.990 741 C 1545.393 736.664, 1543.745 730.969, 1542.083 727.500 C 1540.502 724.200, 1538.241 717.894, 1537.058 713.486 C 1535.876 709.079, 1533.822 703.679, 1532.494 701.486 C 1531.167 699.294, 1528.339 693.890, 1526.211 689.479 C 1524.082 685.067, 1520.980 679.892, 1519.317 677.979 C 1517.653 676.065, 1515.129 672.700, 1513.707 670.500 C 1509.999 664.765, 1487.235 642, 1485.208 642 C 1484.648 642, 1482.257 640.385, 1479.894 638.412 C 1477.532 636.438, 1472.429 633.227, 1468.555 631.276 C 1464.680 629.325, 1460.158 626.697, 1458.505 625.436 C 1456.852 624.175, 1451.449 622.135, 1446.500 620.904 C 1441.550 619.672, 1434.800 617.431, 1431.500 615.923 C 1423.572 612.302, 1420.037 611.427, 1403.928 609.097 C 1396.463 608.017, 1386.788 606.227, 1382.428 605.119 C 1370.040 601.973, 1359.651 600.966, 1329.500 599.991 C 1302.051 599.103, 1013.431 598.811, 1009.500 599.668 M 2665.373 599.689 C 2659.610 600.462, 2658.485 602.970, 2656.553 619.356 C 2655.590 627.526, 2653.994 637.651, 2653.008 641.856 C 2650.475 652.653, 2648.174 671.439, 2646.500 695 C 2645.667 706.713, 2643.192 723.925, 2640.963 733.500 C 2638.901 742.358, 2637.606 753.736, 2636.011 777 C 2634.885 793.421, 2632.732 809.906, 2630.526 819 C 2628.690 826.567, 2627.315 837.343, 2625.486 858.500 C 2623.469 881.836, 2622.235 891.577, 2619.977 902 C 2617.479 913.530, 2616.300 923.007, 2614.500 946 C 2612.674 969.336, 2611.464 978.842, 2608.963 989.500 C 2607.044 997.681, 2604.930 1015.601, 2602.946 1040.500 C 2601.861 1054.125, 2599.505 1069.791, 2596.555 1083 C 2595.756 1086.575, 2594.154 1101.425, 2592.994 1116 C 2590.896 1142.371, 2588.797 1159.781, 2587.026 1165.500 C 2585.225 1171.317, 2583.990 1180.739, 2582.029 1203.620 C 2580.200 1224.961, 2578.586 1236.869, 2574.538 1258.889 C 2573.690 1263.502, 2572.096 1277.902, 2570.995 1290.889 C 2569.018 1314.216, 2566.778 1332.194, 2565.002 1339 C 2563.343 1345.357, 2562.068 1355.266, 2560.500 1374 C 2558.671 1395.856, 2556.670 1411.067, 2553.463 1427.500 C 2551.629 1436.897, 2548.353 1469.830, 2546.661 1495.876 C 2546.544 1497.666, 2547.440 1498.994, 2549.898 1500.675 L 2553.296 1503 2663.193 1503 L 2773.091 1503 2775.545 1500.545 C 2777.155 1498.936, 2778.002 1496.957, 2778.005 1494.795 C 2778.021 1483.252, 2781.381 1437.426, 2783.048 1426 C 2784.353 1417.057, 2786.744 1389.105, 2787.496 1374 C 2788.278 1358.296, 2789.620 1350.154, 2792.100 1346.077 L 2794.041 1342.885 2829.770 1343.192 C 2877.928 1343.607, 2874.085 1340.501, 2875.926 1380.500 C 2877.829 1421.866, 2878.998 1438.710, 2880.987 1453.459 C 2882.028 1461.182, 2883.380 1474.250, 2883.991 1482.500 C 2885.082 1497.231, 2885.155 1497.549, 2888.067 1500.250 L 2891.032 1503 3000.960 1503 L 3110.888 1503 3113.543 1500.717 L 3116.197 1498.434 3115.092 1482.967 C 3114.017 1467.920, 3112.231 1455.304, 3108.149 1433.923 C 3107.055 1428.190, 3105.654 1417.425, 3105.036 1410 C 3103.495 1391.494, 3102.281 1382.461, 3099.523 1369 C 3096.442 1353.963, 3095.442 1346.401, 3093.504 1323.500 C 3092.619 1313.050, 3090.577 1297.975, 3088.965 1290 C 3085.960 1275.131, 3083.598 1258.031, 3082.472 1243 C 3081.757 1233.444, 3079.078 1216.216, 3076.098 1202 C 3075.003 1196.775, 3073.176 1182.119, 3072.038 1169.431 C 3069.961 1146.255, 3068.687 1137.319, 3065.073 1120.560 C 3063.998 1115.577, 3062.625 1105.650, 3062.022 1098.500 C 3060.119 1075.952, 3058.064 1060.619, 3055.020 1046.255 C 3053.258 1037.947, 3051.432 1024.709, 3050.489 1013.418 C 3048.771 992.851, 3046.723 977.619, 3044.516 969 C 3042.749 962.099, 3040.423 944.565, 3038.944 927 C 3038.319 919.575, 3036.486 906.300, 3034.872 897.500 C 3030.362 872.928, 3030.204 871.776, 3028.540 851.500 C 3026.937 831.979, 3025.387 820.196, 3023.902 816.260 C 3022.408 812.300, 3019.972 795.121, 3017.413 770.500 C 3016.041 757.300, 3014.241 743.350, 3013.412 739.500 C 3009.266 720.236, 3009.103 719.032, 3005.442 680.382 C 3004.602 671.517, 3003.071 660.717, 3002.040 656.382 C 2999.250 644.657, 2998.192 638.049, 2996.498 621.768 C 2994.854 605.973, 2994.189 603.232, 2991.451 600.959 C 2989.777 599.569, 2675.396 598.345, 2665.373 599.689 M 1239.355 752.716 C 1231.779 753.668, 1232.532 722.917, 1232.237 1043.425 C 1231.955 1348.720, 1231.907 1345.104, 1236.323 1348.396 C 1243.794 1353.964, 1284.563 1350.791, 1292.341 1344.036 C 1294.079 1342.527, 1297.408 1340.099, 1299.741 1338.640 C 1302.962 1336.624, 1304.819 1334.323, 1307.466 1329.068 C 1309.382 1325.262, 1311.418 1321.860, 1311.989 1321.507 C 1320.560 1316.210, 1320.339 1322.830, 1320.744 1059.500 C 1321.149 796.784, 1321.156 797.080, 1314.189 785.759 C 1313.086 783.967, 1310.140 779.062, 1307.642 774.860 C 1296.294 755.767, 1273.602 748.409, 1239.355 752.716 M 2826 778.311 C 2826 778.702, 2825.343 783.179, 2824.540 788.261 C 2823.737 793.342, 2822.369 809.200, 2821.499 823.500 C 2819.952 848.942, 2817.865 870.508, 2815.982 880.500 C 2814.356 889.128, 2812.079 915.462, 2810.535 943.500 C 2808.850 974.108, 2807.574 988.730, 2805.520 1001 C 2803.251 1014.545, 2802.054 1027.391, 2799.975 1060.500 C 2797.776 1095.536, 2796.547 1109.513, 2794.524 1122.500 C 2790.072 1151.083, 2789.085 1179.216, 2792.405 1182.891 C 2794.904 1185.657, 2856.730 1186.225, 2861.943 1183.530 C 2868.289 1180.248, 2867.356 1131.069, 2860.035 1083 C 2856.765 1061.534, 2856.039 1054.261, 2854.490 1027.499 C 2852.911 1000.200, 2850.494 973.258, 2849.019 966.500 C 2847.318 958.708, 2845.048 936.184, 2843.526 912 C 2841.642 882.060, 2840.443 869.798, 2838.001 855.500 C 2836.968 849.450, 2835.172 835.725, 2834.010 825 C 2831.332 800.290, 2828.232 779.832, 2826.974 778.574 C 2826.438 778.038, 2826 777.920, 2826 778.311" stroke="none" fill="#0b0804" fill-rule="evenodd"/><path d="M 286 2.441 C 286 6.113, 284.888 6.378, 266.500 7.104 C 247.130 7.868, 242.498 8.995, 239.520 13.671 C 236.775 17.981, 234.153 18.996, 225.703 19.022 C 217.804 19.046, 211.315 21.285, 208.820 24.846 C 208.026 25.980, 204.846 28.168, 201.755 29.707 C 198.482 31.336, 195.167 33.918, 193.817 35.888 C 192.347 38.034, 189.887 39.862, 187.089 40.886 C 184.038 42.002, 182.191 43.456, 181.098 45.601 C 179.987 47.780, 178.175 49.184, 175.008 50.321 C 172.529 51.211, 168.344 53.960, 165.709 56.430 C 163.074 58.899, 158.799 62.074, 156.209 63.485 C 153.619 64.896, 150.733 67.389, 149.797 69.025 C 148.860 70.661, 147.285 72.002, 146.297 72.004 C 143.277 72.010, 138.411 75.594, 137.089 78.786 C 136.180 80.979, 134.967 81.973, 132.668 82.409 C 130.841 82.756, 127.253 85.081, 124.192 87.903 C 121.272 90.594, 116.772 93.695, 114.192 94.794 C 111.111 96.106, 108.563 98.157, 106.771 100.767 C 104.964 103.398, 103.035 104.943, 101.066 105.337 C 96.783 106.193, 94.703 110.057, 94.055 118.361 C 93.577 124.488, 93.222 125.521, 91.500 125.779 C 86.228 126.568, 84.714 127.350, 79.934 131.753 C 77.108 134.356, 72.591 137.308, 69.895 138.314 C 63.877 140.559, 62.669 142.573, 62.013 151.457 L 61.500 158.413 57.277 159.457 C 50.980 161.012, 49.868 162.664, 49.138 171.551 L 48.500 179.305 44.708 180.615 C 33.160 184.603, 30.231 189.404, 30.080 204.595 C 29.995 213.236, 29.583 214.046, 23.816 216.927 C 18.726 219.469, 17 225.903, 17 242.337 L 17 256.804 13.896 258.769 C 12.189 259.849, 9.816 262.481, 8.622 264.617 C 6.899 267.698, 5.784 268.565, 3.225 268.813 L 0 269.127 0 1056.063 L 0 1843 2.750 1843.032 C 4.263 1843.049, 6.374 1843.724, 7.441 1844.532 C 8.509 1845.339, 10.084 1846.003, 10.941 1846.006 C 15.341 1846.024, 16.445 1851.284, 16.986 1874.819 L 17.500 1897.139 22.238 1901.613 C 27.549 1906.628, 28.557 1908.210, 30.449 1914.497 C 32.016 1919.704, 41.956 1931.440, 45.989 1932.846 C 48.351 1933.670, 48.810 1934.510, 49.424 1939.136 C 50.474 1947.055, 52.428 1950.399, 57.292 1952.597 C 61.414 1954.461, 61.523 1954.638, 62.610 1961.266 C 63.891 1969.079, 65.321 1970.998, 72.610 1974.689 C 77.801 1977.317, 77.915 1977.470, 78.568 1982.697 C 78.934 1985.628, 79.638 1988.276, 80.132 1988.582 C 80.626 1988.887, 81.663 1990.650, 82.435 1992.499 C 83.762 1995.674, 88.079 1997.974, 92.750 1997.994 C 93.607 1997.998, 94 1999.840, 94 2003.851 C 94 2013.526, 97.398 2019, 103.404 2019 C 104.230 2019, 106.907 2021.029, 109.352 2023.508 C 113.977 2028.200, 119.211 2031, 123.357 2031 C 125.318 2031, 125.898 2031.645, 126.415 2034.400 C 127.190 2038.527, 128.252 2039.471, 133.794 2040.953 C 136.655 2041.718, 138.369 2042.835, 138.929 2044.300 C 140.104 2047.371, 142.774 2049.543, 147.869 2051.572 C 150.272 2052.529, 154.431 2055.471, 157.111 2058.109 C 160.209 2061.159, 163.210 2063.136, 165.347 2063.537 C 167.882 2064.013, 169.105 2064.998, 170.317 2067.539 C 172.024 2071.118, 175.338 2073.293, 180.917 2074.496 C 182.796 2074.901, 185.721 2076.078, 187.417 2077.112 C 189.447 2078.350, 192.382 2078.994, 196.009 2078.996 C 200.332 2078.999, 201.774 2079.408, 202.703 2080.896 C 203.354 2081.938, 205.827 2083.532, 208.200 2084.438 C 210.879 2085.462, 213.153 2087.201, 214.204 2089.032 C 215.278 2090.905, 217.862 2092.849, 221.293 2094.366 C 224.262 2095.679, 226.971 2097.481, 227.312 2098.371 C 228.471 2101.390, 234.202 2103.992, 239.701 2103.996 C 248.707 2104.003, 256.065 2106.497, 259.646 2110.757 L 262.793 2114.500 296.146 2115.057 C 331.558 2115.649, 333.746 2115.952, 335.844 2120.557 C 338.685 2126.792, 333.617 2126.447, 430.955 2127.032 C 524.557 2127.594, 524 2127.564, 524 2132.117 L 524 2135 890.437 2135 L 1256.873 2135 1257.187 2131.750 C 1257.657 2126.874, 1182.506 2127.153, 2515.349 2127.074 C 3635.451 2127.008, 3764.531 2126.842, 3767.430 2125.466 C 3769.207 2124.623, 3771.357 2122.474, 3772.208 2120.691 C 3774.134 2116.650, 3781.924 2115, 3799.068 2115 C 3810.657 2115, 3814.519 2113.952, 3817.238 2110.070 C 3819.150 2107.341, 3826.205 2104.913, 3835 2103.957 C 3839.125 2103.509, 3842.597 2103.110, 3842.715 2103.071 C 3842.834 2103.032, 3844.563 2101.567, 3846.558 2099.815 C 3851.147 2095.786, 3858.654 2092.976, 3867.045 2092.147 C 3873.196 2091.539, 3879 2089.069, 3879 2087.058 C 3879 2086.566, 3881.891 2085.201, 3885.424 2084.025 C 3888.958 2082.849, 3892.388 2081.238, 3893.047 2080.444 C 3893.836 2079.492, 3896.203 2079, 3899.988 2079 C 3904.076 2079, 3906.417 2078.462, 3908.115 2077.133 C 3909.427 2076.105, 3912.750 2074.257, 3915.500 2073.024 C 3921.025 2070.548, 3925 2067.343, 3925 2065.364 C 3925 2064.656, 3926.776 2063.599, 3928.946 2063.014 C 3933.067 2061.905, 3937 2057.981, 3937 2054.979 C 3937 2053.679, 3938.119 2053.059, 3941.334 2052.577 C 3944.653 2052.079, 3946.920 2050.770, 3951.009 2046.991 C 3953.947 2044.277, 3958.209 2041.182, 3960.481 2040.114 C 3966.409 2037.327, 3967.435 2035.620, 3968 2027.601 L 3968.500 2020.500 3972.602 2019.500 C 3977.791 2018.235, 3979.799 2016.556, 3980.816 2012.631 C 3981.484 2010.054, 3982.238 2009.414, 3985.172 2008.937 C 3990.697 2008.039, 3995.706 2005.252, 3998.589 2001.473 C 4000.277 1999.260, 4002.607 1997.644, 4005.067 1996.982 C 4011.632 1995.214, 4012.780 1993.195, 4013.243 1982.606 L 4013.500 1976.712 4017.837 1975.436 C 4024.303 1973.533, 4028.928 1968.355, 4030.901 1960.812 C 4032.266 1955.589, 4033.112 1954.189, 4036.018 1952.343 C 4042.820 1948.021, 4043.876 1946.174, 4045.505 1935.747 C 4045.993 1932.625, 4046.762 1931.652, 4050.080 1929.959 C 4052.723 1928.611, 4054.640 1926.672, 4055.762 1924.212 C 4056.694 1922.171, 4058.366 1919.306, 4059.478 1917.847 C 4060.590 1916.388, 4062.850 1912.820, 4064.500 1909.918 C 4067.168 1905.225, 4069.685 1902.254, 4075.136 1897.359 C 4077.434 1895.296, 4078 1891.472, 4078 1878.015 C 4078 1859.484, 4078.491 1857.316, 4082.874 1856.503 C 4086.822 1855.771, 4090 1853.471, 4090 1851.345 C 4090 1850.532, 4091.131 1850, 4092.858 1850 C 4095.621 1850, 4095.736 1849.798, 4096.358 1843.853 C 4097.041 1837.311, 4096.960 265.240, 4096.277 270.750 C 4095.816 274.462, 4091.480 275.555, 4090.326 272.250 C 4089.990 271.287, 4087.192 268.196, 4084.109 265.380 L 4078.503 260.260 4077.937 244.380 C 4077.271 225.687, 4076.420 223.188, 4068.529 216.782 L 4063.255 212.500 4062.786 204.500 C 4062.070 192.299, 4057.791 184.278, 4050.787 182.008 C 4045.881 180.418, 4045.040 178.713, 4045.011 170.297 C 4044.995 165.522, 4043.116 162.275, 4039.620 160.976 C 4031.546 157.978, 4032 158.486, 4032 152.456 C 4032 144.117, 4025.447 137, 4017.769 137 C 4015.363 137, 4014.639 136.324, 4013.033 132.578 C 4011.350 128.650, 4010.599 128.003, 4006.328 126.797 L 4001.519 125.438 4000.753 119.969 C 3999.612 111.826, 3998.245 109.333, 3993.338 106.458 C 3990.893 105.025, 3986.556 101.624, 3983.699 98.899 C 3979.972 95.344, 3977.422 93.771, 3974.674 93.332 C 3971.756 92.865, 3970.608 92.098, 3969.852 90.112 C 3968.361 86.190, 3966.075 84.099, 3962.091 83.012 C 3959.774 82.380, 3957.917 81, 3956.858 79.123 C 3955.926 77.472, 3953.010 75.106, 3950.117 73.653 C 3947.312 72.244, 3943.101 69.217, 3940.759 66.925 C 3938.417 64.633, 3934.700 61.932, 3932.500 60.923 C 3930.300 59.913, 3927.256 57.508, 3925.735 55.578 C 3923.946 53.308, 3921.565 51.691, 3918.992 50.998 C 3916.183 50.241, 3914.563 49.056, 3913.482 46.965 C 3912.501 45.067, 3909.850 42.944, 3906.101 41.051 C 3902.884 39.427, 3899.991 37.419, 3899.673 36.589 C 3898.778 34.259, 3891.129 29.112, 3886.846 27.959 C 3884.731 27.389, 3883 26.305, 3883 25.550 C 3883 22.048, 3877.085 19, 3870.289 19 C 3861.229 19, 3856.202 17.341, 3851.386 12.762 C 3846.167 7.800, 3842.849 7.054, 3825.875 7.024 C 3807.940 6.992, 3806 6.587, 3806 2.875 L 3806 0 2046 0 L 286 0 286 2.441 M 0.497 1056 C 0.497 1489.125, 0.611 1666.313, 0.750 1449.750 C 0.889 1233.188, 0.889 878.813, 0.750 662.250 C 0.611 445.688, 0.497 622.875, 0.497 1056 M 1828 580.594 C 1826.075 580.824, 1817.975 581.889, 1810 582.961 C 1783.600 586.509, 1772.567 587.925, 1766.500 588.542 C 1759.522 589.252, 1750.371 591.604, 1747.500 593.425 C 1744.951 595.041, 1736.679 597.647, 1731.500 598.466 C 1725.105 599.477, 1718.571 601.866, 1715.003 604.498 C 1713.183 605.840, 1708.831 607.892, 1705.330 609.057 C 1701.829 610.222, 1696.835 612.696, 1694.232 614.556 C 1691.630 616.415, 1686.692 619.322, 1683.261 621.015 C 1679.829 622.707, 1676.553 624.967, 1675.981 626.036 C 1675.409 627.105, 1673.553 628.697, 1671.858 629.574 C 1666.771 632.204, 1649.331 648.678, 1644.571 655.348 C 1642.128 658.772, 1639.151 662.457, 1637.956 663.537 C 1636.761 664.617, 1634.732 667.573, 1633.447 670.107 C 1632.162 672.642, 1629.974 676.066, 1628.585 677.716 C 1627.196 679.367, 1624.731 684.167, 1623.108 688.383 C 1621.484 692.599, 1618.794 698.106, 1617.128 700.620 C 1615.463 703.134, 1613.618 707.510, 1613.028 710.345 C 1612.438 713.180, 1611.340 718.425, 1610.586 722 C 1609.833 725.575, 1608.030 731.755, 1606.580 735.732 C 1597.315 761.145, 1597.971 898.296, 1607.470 921.754 C 1608.750 924.914, 1610.765 932, 1611.947 937.500 C 1613.496 944.706, 1615.171 949.316, 1617.942 954 C 1620.057 957.575, 1622.537 962.834, 1623.453 965.688 C 1624.370 968.541, 1626.488 972.591, 1628.162 974.688 C 1629.835 976.784, 1632.463 980.975, 1634.002 984 C 1635.541 987.025, 1638.015 990.625, 1639.501 992 C 1640.986 993.375, 1643.112 996.426, 1644.225 998.780 C 1645.338 1001.134, 1648.130 1005.184, 1650.430 1007.780 C 1652.730 1010.376, 1655.683 1014.075, 1656.994 1016 C 1658.304 1017.925, 1660.979 1021.131, 1662.938 1023.124 C 1664.897 1025.117, 1667.921 1028.267, 1669.658 1030.124 C 1673.034 1033.733, 1681.903 1041.897, 1691.232 1049.981 C 1694.384 1052.713, 1699.109 1056.053, 1701.732 1057.404 C 1704.354 1058.754, 1707.794 1061.261, 1709.376 1062.974 C 1710.959 1064.687, 1713.884 1066.925, 1715.876 1067.947 C 1717.869 1068.969, 1720.625 1071.018, 1722 1072.500 C 1723.375 1073.982, 1726.300 1076.098, 1728.500 1077.202 C 1730.700 1078.306, 1735.069 1081.202, 1738.208 1083.638 C 1741.348 1086.074, 1745.520 1088.737, 1747.481 1089.556 C 1749.441 1090.375, 1752.733 1092.571, 1754.797 1094.436 C 1756.861 1096.301, 1761.176 1098.988, 1764.386 1100.407 C 1767.597 1101.827, 1771.731 1104.313, 1773.574 1105.931 C 1775.417 1107.549, 1778.878 1109.737, 1781.264 1110.792 C 1783.649 1111.848, 1787.154 1114.065, 1789.051 1115.720 C 1790.948 1117.375, 1795.200 1120.213, 1798.500 1122.026 C 1801.800 1123.840, 1805.625 1126.326, 1807 1127.552 C 1808.375 1128.777, 1811.525 1130.789, 1814 1132.022 C 1816.475 1133.255, 1820.119 1135.717, 1822.099 1137.493 C 1824.078 1139.269, 1828.513 1142.222, 1831.954 1144.056 C 1835.394 1145.890, 1838.884 1148.420, 1839.708 1149.678 C 1840.533 1150.936, 1842.848 1152.973, 1844.853 1154.206 C 1849.959 1157.343, 1871.081 1178.580, 1874.492 1184.005 C 1876.046 1186.477, 1878.094 1189.051, 1879.042 1189.724 C 1879.989 1190.398, 1882.630 1194.766, 1884.910 1199.432 C 1887.189 1204.098, 1889.495 1208.188, 1890.034 1208.521 C 1898.405 1213.695, 1904.567 1293.011, 1899.005 1324 C 1898.462 1327.025, 1897.550 1333.325, 1896.977 1338 C 1895.518 1349.927, 1893.391 1356.637, 1889.901 1360.330 C 1888.253 1362.073, 1885.897 1365.075, 1884.665 1367 C 1876.614 1379.582, 1837.404 1378.599, 1830.833 1365.651 C 1829.674 1363.368, 1827.494 1359.700, 1825.987 1357.500 C 1819.274 1347.695, 1819.587 1351.994, 1819.017 1261.830 L 1818.500 1180.159 1816.071 1177.575 L 1813.643 1174.991 1709.679 1175.245 L 1605.716 1175.500 1603.608 1178.322 C 1601.534 1181.100, 1601.495 1182.017, 1601.186 1235.822 C 1600.738 1313.971, 1602.264 1346.393, 1607.124 1362 C 1608.238 1365.575, 1610.423 1374.668, 1611.980 1382.208 C 1613.944 1391.715, 1615.912 1398.150, 1618.403 1403.208 C 1620.378 1407.218, 1622.711 1413.118, 1623.588 1416.319 C 1624.465 1419.519, 1626.437 1423.569, 1627.971 1425.319 C 1629.504 1427.068, 1632.163 1431.600, 1633.880 1435.388 C 1635.596 1439.176, 1638.749 1444.174, 1640.887 1446.494 C 1643.026 1448.813, 1645.341 1451.769, 1646.033 1453.062 C 1647.151 1455.150, 1655.854 1464.052, 1667.500 1475.018 C 1669.700 1477.089, 1673.777 1479.922, 1676.561 1481.313 C 1679.344 1482.704, 1683.508 1485.418, 1685.814 1487.344 C 1688.119 1489.271, 1691.692 1491.380, 1693.753 1492.031 C 1695.814 1492.683, 1700.819 1495.010, 1704.876 1497.203 C 1709.318 1499.604, 1716.255 1502.178, 1722.314 1503.673 C 1727.848 1505.039, 1734.429 1507.185, 1736.938 1508.442 C 1744.160 1512.059, 1747.542 1512.829, 1763.500 1514.489 C 1771.750 1515.347, 1782.775 1516.918, 1788 1517.981 C 1816.201 1523.718, 1880.634 1524.658, 1909 1519.747 C 1917.525 1518.270, 1933.327 1515.963, 1944.116 1514.618 C 1960.146 1512.621, 1965.174 1511.596, 1971.616 1509.012 C 1975.952 1507.273, 1984.183 1504.741, 1989.908 1503.386 C 1996.077 1501.925, 2002.796 1499.547, 2006.408 1497.547 C 2009.758 1495.691, 2014.805 1493.500, 2017.622 1492.678 C 2023.515 1490.959, 2028.222 1488.669, 2032.500 1485.439 C 2034.150 1484.193, 2037.975 1482.074, 2041 1480.731 C 2044.025 1479.388, 2047.400 1477.276, 2048.500 1476.038 C 2049.600 1474.800, 2052.167 1472.936, 2054.205 1471.896 C 2059.965 1468.957, 2077.617 1453.428, 2081.142 1448.199 C 2082.885 1445.615, 2085.654 1442.150, 2087.295 1440.500 C 2088.936 1438.850, 2091.078 1435.700, 2092.055 1433.500 C 2093.031 1431.300, 2095.373 1427.810, 2097.258 1425.744 C 2099.375 1423.426, 2101.405 1419.615, 2102.565 1415.784 C 2103.599 1412.371, 2105.941 1407.403, 2107.771 1404.743 C 2110.333 1401.018, 2111.685 1397.219, 2113.657 1388.204 C 2115.064 1381.767, 2117.281 1373.954, 2118.582 1370.843 C 2129.551 1344.609, 2128.900 1173.199, 2117.729 1146.500 C 2116.348 1143.200, 2114.442 1136.900, 2113.492 1132.500 C 2112.476 1127.788, 2110.201 1121.623, 2107.957 1117.500 C 2105.862 1113.650, 2103.200 1107.960, 2102.042 1104.855 C 2100.883 1101.751, 2098.627 1097.405, 2097.029 1095.199 C 2095.431 1092.993, 2092.795 1088.558, 2091.171 1085.344 C 2089.547 1082.130, 2087.221 1078.600, 2086.001 1077.500 C 2084.782 1076.400, 2082.723 1073.407, 2081.426 1070.850 C 2080.129 1068.292, 2077.321 1064.182, 2075.188 1061.717 C 2073.054 1059.251, 2070.250 1055.522, 2068.957 1053.430 C 2067.664 1051.338, 2064.557 1047.566, 2062.053 1045.046 C 2059.549 1042.527, 2054.041 1036.873, 2049.813 1032.483 C 2041.283 1023.625, 2032.813 1015.821, 2029 1013.305 C 2027.625 1012.398, 2024.433 1009.756, 2021.907 1007.435 C 2019.381 1005.113, 2015.781 1002.441, 2013.907 1001.497 C 2012.033 1000.552, 2008.925 998.326, 2007 996.550 C 2005.075 994.773, 2001.371 992.109, 1998.768 990.629 C 1996.166 989.148, 1993.562 987.051, 1992.982 985.967 C 1992.403 984.884, 1989.780 982.909, 1987.155 981.578 C 1984.530 980.248, 1980.136 977.385, 1977.392 975.216 C 1974.648 973.046, 1970.363 970.369, 1967.869 969.266 C 1965.376 968.163, 1961.872 965.829, 1960.082 964.080 C 1958.292 962.330, 1954.341 959.799, 1951.302 958.455 C 1948.263 957.111, 1944.208 954.634, 1942.290 952.949 C 1940.371 951.265, 1936.460 948.851, 1933.597 947.585 C 1930.735 946.320, 1926.823 943.906, 1924.905 942.222 C 1922.987 940.537, 1918.736 937.975, 1915.459 936.528 C 1912.181 935.080, 1908.150 932.592, 1906.500 930.999 C 1904.850 929.405, 1901.700 927.360, 1899.500 926.454 C 1897.300 925.548, 1893.234 923.109, 1890.465 921.033 C 1887.696 918.958, 1883.421 916.238, 1880.965 914.988 C 1878.509 913.738, 1874.250 910.754, 1871.500 908.357 C 1868.750 905.961, 1863.497 901.412, 1859.827 898.250 C 1856.157 895.087, 1849.946 888.900, 1846.024 884.500 C 1842.102 880.100, 1837.308 874.769, 1835.370 872.653 C 1833.431 870.536, 1830.950 866.711, 1829.855 864.153 C 1828.761 861.594, 1827.017 858.594, 1825.980 857.486 C 1815.349 846.128, 1815.103 756.587, 1825.667 743.500 C 1826.999 741.850, 1829.531 738.514, 1831.294 736.087 C 1846.832 714.698, 1889.517 727.693, 1897.145 756.135 C 1898.822 762.386, 1900.665 769.075, 1901.242 771 C 1901.864 773.075, 1902.468 790.987, 1902.727 815 C 1903.204 859.346, 1902.824 856.662, 1909.334 861.718 L 1912.167 863.919 2003.886 863.915 C 2103.882 863.911, 2105.155 863.846, 2109.736 858.521 L 2112 855.888 2111.965 811.194 C 2111.922 757.587, 2111.136 743.541, 2107.564 732.598 C 2106.151 728.271, 2104.525 721.753, 2103.949 718.115 C 2102.211 707.123, 2100.027 699.812, 2096.597 693.500 C 2094.803 690.200, 2092.518 685.250, 2091.518 682.500 C 2090.518 679.750, 2088.495 675.925, 2087.023 674 C 2085.551 672.075, 2083.057 668.250, 2081.481 665.500 C 2079.905 662.750, 2076.227 657.887, 2073.308 654.693 C 2070.389 651.499, 2067.994 648.574, 2067.986 648.193 C 2067.933 645.673, 2040.148 623.491, 2033.041 620.295 C 2030.039 618.945, 2026.143 616.577, 2024.385 615.033 C 2022.626 613.489, 2018.284 611.259, 2014.735 610.078 C 2011.186 608.897, 2006.307 606.683, 2003.891 605.158 C 1998.182 601.554, 1997.220 601.216, 1986.192 598.941 C 1981.073 597.885, 1973.873 595.723, 1970.192 594.136 C 1961.622 590.440, 1962.533 590.626, 1935.500 587.067 C 1922.850 585.402, 1907.550 583.338, 1901.500 582.480 C 1890.954 580.984, 1836.442 579.585, 1828 580.594 M 2319 580.575 C 2317.625 580.794, 2312 581.474, 2306.500 582.086 C 2301 582.697, 2292.450 584.008, 2287.500 585 C 2282.550 585.991, 2275.800 587.091, 2272.500 587.444 C 2261.935 588.574, 2255.614 590.121, 2251 592.705 C 2248.525 594.090, 2242.054 596.718, 2236.619 598.543 C 2230.173 600.708, 2225.654 602.889, 2223.619 604.819 C 2221.904 606.445, 2218.927 608.570, 2217.004 609.541 C 2212.035 612.049, 2201.552 621.552, 2198.412 626.395 C 2196.948 628.653, 2194.712 631.625, 2193.444 633 C 2192.176 634.375, 2190.135 638.200, 2188.908 641.500 C 2187.682 644.800, 2185.236 649.599, 2183.474 652.165 C 2180.979 655.799, 2179.999 658.674, 2179.041 665.165 C 2178.364 669.749, 2176.759 678.450, 2175.475 684.500 C 2171.335 704, 2170.734 710.090, 2170.616 733.713 C 2170.455 765.908, 2163.586 762.994, 2239.500 762.929 C 2316.551 762.862, 2307.825 767.471, 2308.503 726.477 C 2309.265 680.437, 2309.154 681.037, 2318.640 671.785 C 2331.968 658.787, 2356.796 664.886, 2362.259 682.500 C 2364.351 689.244, 2363.869 764.830, 2361.688 772.146 C 2360.046 777.653, 2355.460 785.708, 2350.810 791.255 C 2345.881 797.133, 2325.538 801.791, 2301.228 802.608 L 2280.500 803.304 2276.750 807.034 L 2273 810.765 2273 843.806 L 2273 876.847 2275.480 879.794 C 2279.268 884.296, 2282.031 884.864, 2302 885.251 L 2320.500 885.610 2333.392 890.022 C 2350.424 895.852, 2349.684 895.157, 2360.230 915.231 C 2363.840 922.102, 2365.418 1025.590, 2362.121 1039.232 C 2357.027 1060.308, 2329.316 1066.948, 2316.214 1050.231 C 2309.157 1041.228, 2308.969 1039.513, 2308.584 980.772 C 2308.156 915.468, 2317.585 923.595, 2241.791 923.206 C 2164.070 922.807, 2170.640 919.811, 2170.197 955.855 C 2169.801 988.066, 2171.280 1015.840, 2174.013 1027.534 C 2175.166 1032.465, 2176.769 1041.225, 2177.575 1047 C 2179.433 1060.313, 2181.537 1068.611, 2184.032 1072.468 C 2185.111 1074.135, 2186.904 1077.525, 2188.016 1080 C 2196.216 1098.243, 2211.707 1114.784, 2228.343 1123.060 C 2232.279 1125.019, 2237.525 1127.793, 2240 1129.226 C 2242.475 1130.659, 2248.924 1132.779, 2254.332 1133.937 C 2259.740 1135.095, 2265.815 1136.872, 2267.832 1137.886 C 2276.962 1142.472, 2295.218 1144.098, 2337.500 1144.089 C 2381.046 1144.080, 2393.290 1142.901, 2411.500 1136.964 C 2416.450 1135.350, 2423.856 1133.335, 2427.957 1132.485 C 2432.155 1131.616, 2438.083 1129.448, 2441.519 1127.527 C 2444.876 1125.649, 2450.220 1123.141, 2453.393 1121.954 C 2456.567 1120.767, 2460.590 1118.562, 2462.332 1117.055 C 2464.074 1115.548, 2467.525 1113.114, 2470 1111.646 C 2478.028 1106.886, 2492.838 1090.882, 2496.155 1083.382 C 2497.236 1080.938, 2499.433 1076.815, 2501.037 1074.219 C 2502.641 1071.624, 2505.111 1065, 2506.526 1059.500 C 2507.940 1054, 2510.244 1045.900, 2511.645 1041.500 C 2517.819 1022.111, 2517.749 921.995, 2511.548 902.324 C 2510.191 898.021, 2507.976 889.931, 2506.627 884.346 C 2504.078 873.801, 2502.933 870.876, 2500.030 867.500 C 2499.085 866.400, 2496.701 862.799, 2494.733 859.497 C 2492.766 856.196, 2489.208 852.040, 2486.828 850.261 C 2484.448 848.483, 2480.780 845.696, 2478.677 844.068 C 2476.574 842.441, 2472.749 840.375, 2470.177 839.478 C 2463.512 837.152, 2454.572 833.747, 2454.089 833.350 C 2453.864 833.164, 2454.379 832.222, 2455.236 831.256 C 2456.092 830.290, 2457.627 827.700, 2458.646 825.500 C 2460.147 822.261, 2461.727 820.884, 2466.944 818.263 C 2474.390 814.523, 2479.803 809.586, 2484.228 802.500 C 2485.945 799.750, 2488.415 796.330, 2489.718 794.900 C 2491.021 793.470, 2493.620 787.620, 2495.493 781.900 C 2497.366 776.180, 2500.156 768.125, 2501.692 764 L 2504.485 756.500 2504.484 725.500 C 2504.482 691.975, 2503.627 683.158, 2499.600 675.176 C 2498.302 672.604, 2496.266 666.932, 2495.074 662.571 C 2493.762 657.769, 2491.596 652.840, 2489.580 650.071 C 2487.749 647.557, 2485.232 643.475, 2483.987 641 C 2482.142 637.331, 2474.929 628.352, 2469.929 623.500 C 2469.362 622.950, 2466.080 619.688, 2462.635 616.250 C 2459.190 612.813, 2455.899 610, 2455.322 610 C 2454.745 610, 2451.315 607.816, 2447.700 605.148 C 2444.085 602.479, 2438.961 599.704, 2436.313 598.981 C 2433.666 598.258, 2428.125 595.948, 2424 593.849 C 2417.597 590.591, 2414.160 589.653, 2400.500 587.435 C 2391.700 586.006, 2379.775 583.904, 2374 582.764 C 2364.048 580.799, 2326.872 579.319, 2319 580.575 M 1009.500 599.668 C 1005.181 600.608, 1002.969 602.454, 1002.006 605.919 C 1000.429 611.594, 1000.703 1497.030, 1002.282 1499.087 C 1005.345 1503.076, 1001.732 1503, 1188.355 1503 C 1381.185 1503, 1393.007 1502.752, 1407.371 1498.403 C 1411.842 1497.050, 1419.100 1495.270, 1423.500 1494.448 C 1438.753 1491.600, 1444.427 1489.934, 1449.108 1486.931 C 1452.526 1484.738, 1465.172 1480, 1467.609 1480 C 1467.673 1480, 1469.474 1478.604, 1471.612 1476.897 C 1473.751 1475.190, 1478.425 1472.310, 1482 1470.497 C 1485.575 1468.683, 1489.850 1466.003, 1491.500 1464.541 C 1493.150 1463.079, 1495.850 1461.192, 1497.500 1460.347 C 1499.150 1459.503, 1502.367 1456.942, 1504.648 1454.656 C 1506.929 1452.370, 1510.304 1449.080, 1512.148 1447.344 C 1519.625 1440.303, 1524.891 1434.313, 1526.514 1431 C 1527.457 1429.075, 1529.308 1426.345, 1530.627 1424.932 C 1531.946 1423.520, 1534.580 1418.621, 1536.481 1414.046 C 1538.382 1409.471, 1540.568 1405.001, 1541.340 1404.114 C 1543.952 1401.109, 1544.887 1398.359, 1547.014 1387.417 C 1548.181 1381.412, 1549.998 1373.350, 1551.050 1369.500 C 1554.966 1355.175, 1555.039 1349.782, 1555.018 1078.103 C 1554.997 812.181, 1554.805 796.188, 1551.423 777.531 C 1550.097 770.217, 1548.941 762.443, 1545.990 741 C 1545.393 736.664, 1543.745 730.969, 1542.083 727.500 C 1540.502 724.200, 1538.241 717.894, 1537.058 713.486 C 1535.876 709.079, 1533.822 703.679, 1532.494 701.486 C 1531.167 699.294, 1528.339 693.890, 1526.211 689.479 C 1524.082 685.067, 1520.980 679.892, 1519.317 677.979 C 1517.653 676.065, 1515.129 672.700, 1513.707 670.500 C 1509.999 664.765, 1487.235 642, 1485.208 642 C 1484.648 642, 1482.257 640.385, 1479.894 638.412 C 1477.532 636.438, 1472.429 633.227, 1468.555 631.276 C 1464.680 629.325, 1460.158 626.697, 1458.505 625.436 C 1456.852 624.175, 1451.449 622.135, 1446.500 620.904 C 1441.550 619.672, 1434.800 617.431, 1431.500 615.923 C 1423.572 612.302, 1420.037 611.427, 1403.928 609.097 C 1396.463 608.017, 1386.788 606.227, 1382.428 605.119 C 1370.040 601.973, 1359.651 600.966, 1329.500 599.991 C 1302.051 599.103, 1013.431 598.811, 1009.500 599.668 M 2665.373 599.689 C 2659.610 600.462, 2658.485 602.970, 2656.553 619.356 C 2655.590 627.526, 2653.994 637.651, 2653.008 641.856 C 2650.475 652.653, 2648.174 671.439, 2646.500 695 C 2645.667 706.713, 2643.192 723.925, 2640.963 733.500 C 2638.901 742.358, 2637.606 753.736, 2636.011 777 C 2634.885 793.421, 2632.732 809.906, 2630.526 819 C 2628.690 826.567, 2627.315 837.343, 2625.486 858.500 C 2623.469 881.836, 2622.235 891.577, 2619.977 902 C 2617.479 913.530, 2616.300 923.007, 2614.500 946 C 2612.674 969.336, 2611.464 978.842, 2608.963 989.500 C 2607.044 997.681, 2604.930 1015.601, 2602.946 1040.500 C 2601.861 1054.125, 2599.505 1069.791, 2596.555 1083 C 2595.756 1086.575, 2594.154 1101.425, 2592.994 1116 C 2590.896 1142.371, 2588.797 1159.781, 2587.026 1165.500 C 2585.225 1171.317, 2583.990 1180.739, 2582.029 1203.620 C 2580.200 1224.961, 2578.586 1236.869, 2574.538 1258.889 C 2573.690 1263.502, 2572.096 1277.902, 2570.995 1290.889 C 2569.018 1314.216, 2566.778 1332.194, 2565.002 1339 C 2563.343 1345.357, 2562.068 1355.266, 2560.500 1374 C 2558.671 1395.856, 2556.670 1411.067, 2553.463 1427.500 C 2551.629 1436.897, 2548.353 1469.830, 2546.661 1495.876 C 2546.544 1497.666, 2547.440 1498.994, 2549.898 1500.675 L 2553.296 1503 2663.193 1503 L 2773.091 1503 2775.545 1500.545 C 2777.155 1498.936, 2778.002 1496.957, 2778.005 1494.795 C 2778.021 1483.252, 2781.381 1437.426, 2783.048 1426 C 2784.353 1417.057, 2786.744 1389.105, 2787.496 1374 C 2788.278 1358.296, 2789.620 1350.154, 2792.100 1346.077 L 2794.041 1342.885 2829.770 1343.192 C 2877.928 1343.607, 2874.085 1340.501, 2875.926 1380.500 C 2877.829 1421.866, 2878.998 1438.710, 2880.987 1453.459 C 2882.028 1461.182, 2883.380 1474.250, 2883.991 1482.500 C 2885.082 1497.231, 2885.155 1497.549, 2888.067 1500.250 L 2891.032 1503 3000.960 1503 L 3110.888 1503 3113.543 1500.717 L 3116.197 1498.434 3115.092 1482.967 C 3114.017 1467.920, 3112.231 1455.304, 3108.149 1433.923 C 3107.055 1428.190, 3105.654 1417.425, 3105.036 1410 C 3103.495 1391.494, 3102.281 1382.461, 3099.523 1369 C 3096.442 1353.963, 3095.442 1346.401, 3093.504 1323.500 C 3092.619 1313.050, 3090.577 1297.975, 3088.965 1290 C 3085.960 1275.131, 3083.598 1258.031, 3082.472 1243 C 3081.757 1233.444, 3079.078 1216.216, 3076.098 1202 C 3075.003 1196.775, 3073.176 1182.119, 3072.038 1169.431 C 3069.961 1146.255, 3068.687 1137.319, 3065.073 1120.560 C 3063.998 1115.577, 3062.625 1105.650, 3062.022 1098.500 C 3060.119 1075.952, 3058.064 1060.619, 3055.020 1046.255 C 3053.258 1037.947, 3051.432 1024.709, 3050.489 1013.418 C 3048.771 992.851, 3046.723 977.619, 3044.516 969 C 3042.749 962.099, 3040.423 944.565, 3038.944 927 C 3038.319 919.575, 3036.486 906.300, 3034.872 897.500 C 3030.362 872.928, 3030.204 871.776, 3028.540 851.500 C 3026.937 831.979, 3025.387 820.196, 3023.902 816.260 C 3022.408 812.300, 3019.972 795.121, 3017.413 770.500 C 3016.041 757.300, 3014.241 743.350, 3013.412 739.500 C 3009.266 720.236, 3009.103 719.032, 3005.442 680.382 C 3004.602 671.517, 3003.071 660.717, 3002.040 656.382 C 2999.250 644.657, 2998.192 638.049, 2996.498 621.768 C 2994.854 605.973, 2994.189 603.232, 2991.451 600.959 C 2989.777 599.569, 2675.396 598.345, 2665.373 599.689 M 1239.355 752.716 C 1231.779 753.668, 1232.532 722.917, 1232.237 1043.425 C 1231.955 1348.720, 1231.907 1345.104, 1236.323 1348.396 C 1243.794 1353.964, 1284.563 1350.791, 1292.341 1344.036 C 1294.079 1342.527, 1297.408 1340.099, 1299.741 1338.640 C 1302.962 1336.624, 1304.819 1334.323, 1307.466 1329.068 C 1309.382 1325.262, 1311.418 1321.860, 1311.989 1321.507 C 1320.560 1316.210, 1320.339 1322.830, 1320.744 1059.500 C 1321.149 796.784, 1321.156 797.080, 1314.189 785.759 C 1313.086 783.967, 1310.140 779.062, 1307.642 774.860 C 1296.294 755.767, 1273.602 748.409, 1239.355 752.716 M 2826 778.311 C 2826 778.702, 2825.343 783.179, 2824.540 788.261 C 2823.737 793.342, 2822.369 809.200, 2821.499 823.500 C 2819.952 848.942, 2817.865 870.508, 2815.982 880.500 C 2814.356 889.128, 2812.079 915.462, 2810.535 943.500 C 2808.850 974.108, 2807.574 988.730, 2805.520 1001 C 2803.251 1014.545, 2802.054 1027.391, 2799.975 1060.500 C 2797.776 1095.536, 2796.547 1109.513, 2794.524 1122.500 C 2790.072 1151.083, 2789.085 1179.216, 2792.405 1182.891 C 2794.904 1185.657, 2856.730 1186.225, 2861.943 1183.530 C 2868.289 1180.248, 2867.356 1131.069, 2860.035 1083 C 2856.765 1061.534, 2856.039 1054.261, 2854.490 1027.499 C 2852.911 1000.200, 2850.494 973.258, 2849.019 966.500 C 2847.318 958.708, 2845.048 936.184, 2843.526 912 C 2841.642 882.060, 2840.443 869.798, 2838.001 855.500 C 2836.968 849.450, 2835.172 835.725, 2834.010 825 C 2831.332 800.290, 2828.232 779.832, 2826.974 778.574 C 2826.438 778.038, 2826 777.920, 2826 778.311" stroke="none" fill="#fad21f" fill-rule="evenodd"/></svg>